<?xml version="1.0" encoding="utf-8"?>
<!-- Generator: Adobe Illustrator 26.0.2, SVG Export Plug-In . SVG Version: 6.00 Build 0)  -->
<svg version="1.1" id="Layer_1" xmlns="http://www.w3.org/2000/svg" xmlns:xlink="http://www.w3.org/1999/xlink" x="0px" y="0px"
	 viewBox="0 0 458.3 458.3" style="enable-background:new 0 0 458.3 458.3;" xml:space="preserve">
<style type="text/css">
	.st0{fill:#FFFFFF;}
</style>
<g>
	<g>
		<path class="st0" d="M446.2,179.2h-64.8c-2.5-7.7-5.6-15.1-9.3-22.3l45.8-45.8c4.7-4.7,4.7-12.4,0-17.2l-53.6-53.6
			c-4.7-4.7-12.4-4.7-17.2,0l-45.8,45.8c-7.1-3.6-14.6-6.7-22.3-9.3V12.1C279.2,5.4,273.7,0,267,0h-75.7c-6.7,0-12.1,5.4-12.1,12.1
			v64.8c-7.7,2.5-15.1,5.6-22.3,9.3l-45.8-45.8c-4.7-4.7-12.4-4.7-17.2,0L40.3,93.9c-4.7,4.7-4.7,12.4,0,17.2l45.8,45.8
			c-3.6,7.1-6.7,14.6-9.3,22.3H12.1c-6.7,0-12.1,5.4-12.1,12.1V267c0,6.7,5.4,12.1,12.1,12.1h64.8c2.5,7.7,5.6,15.1,9.3,22.3
			l-45.8,45.8c-4.7,4.7-4.7,12.4,0,17.2L93.9,418c4.7,4.7,12.4,4.7,17.2,0l45.8-45.8c7.1,3.6,14.6,6.7,22.3,9.3v64.8
			c0,6.7,5.4,12.1,12.1,12.1H267c6.7,0,12.1-5.4,12.1-12.1v-64.8c7.7-2.5,15.1-5.6,22.3-9.3l45.8,45.8c4.7,4.7,12.4,4.7,17.2,0
			l53.6-53.6c4.7-4.7,4.7-12.4,0-17.2l-45.8-45.8c3.6-7.1,6.7-14.6,9.3-22.3h64.8c6.7,0,12.1-5.4,12.1-12.1v-75.7
			C458.3,184.6,452.9,179.2,446.2,179.2z M229.2,289.5c-33.3,0-60.4-27-60.4-60.4s27-60.4,60.4-60.4s60.4,27,60.4,60.4
			S262.5,289.5,229.2,289.5z"/>
	</g>
</g>
</svg>
